 <svg version="1.0" xmlns="http://www.w3.org/2000/svg" width="700.000000pt" height="350.000000pt" viewBox="0 0 700.000000 350.000000" preserveAspectRatio="xMidYMid meet">
<metadata>
Created by potrace 1.12, written by Peter Selinger 2001-2015
</metadata>
<g transform="translate(0.000000,350.000000) scale(0.100000,-0.100000)" fill="#000000" stroke="none">
<path d="M3160 3058 c0 -7 -15 -20 -32 -29 -54 -26 -68 -55 -74 -154 -13 -196
-7 -1751 6 -1811 9 -39 48 -81 85 -90 14 -3 25 -10 25 -15 0 -11 777 -12 782
-1 2 4 19 15 38 25 68 34 64 -2 70 687 4 547 7 625 20 625 12 0 15 22 18 131
2 125 2 132 -18 137 -19 5 -20 13 -20 200 0 185 -1 196 -23 228 -13 20 -36 38
-55 44 -17 5 -32 15 -32 22 0 19 -790 19 -790 1z m140 -60 c36 -61 23 -59 263
-56 l221 3 29 43 c25 37 33 42 66 42 21 0 55 -7 75 -15 71 -30 67 37 67 -961
-1 -495 -1 -921 -1 -947 0 -40 -5 -54 -29 -78 l-29 -29 -406 0 -405 0 -25 23
c-18 15 -29 38 -34 72 -5 28 -8 453 -8 945 1 991 -2 938 66 972 19 9 56 17 83
18 43 0 49 -3 67 -32z m298 3 c11 -7 10 -10 -3 -15 -9 -3 -27 -6 -40 -6 -13 0
-31 3 -40 6 -13 5 -14 8 -3 15 17 11 69 11 86 0z m84 -6 c0 -5 -5 -11 -11 -13
-6 -2 -11 4 -11 13 0 9 5 15 11 13 6 -2 11 -8 11 -13z"></path>
<path d="M3450 2265 c0 -8 5 -15 10 -15 6 0 10 7 10 15 0 8 -4 15 -10 15 -5 0
-10 -7 -10 -15z"></path>
<path d="M3537 2273 c-11 -10 -8 -20 8 -27 10 -4 15 1 15 14 0 20 -11 26 -23
13z"></path>
<path d="M3541 2196 c-9 -10 -9 -16 -1 -21 16 -10 31 7 21 23 -6 10 -10 10
-20 -2z"></path>
<path d="M3455 2190 c-3 -5 -1 -10 4 -10 6 0 11 5 11 10 0 6 -2 10 -4 10 -3 0
-8 -4 -11 -10z"></path>
<path d="M3534 2109 c-7 -12 12 -29 34 -29 18 0 15 27 -4 34 -21 8 -22 8 -30
-5z"></path>
<path d="M3450 2101 c0 -6 5 -13 10 -16 6 -3 10 1 10 9 0 9 -4 16 -10 16 -5 0
-10 -4 -10 -9z"></path>
<path d="M3543 2043 c-18 -7 -16 -33 2 -33 8 0 15 9 15 20 0 11 -1 20 -2 19
-2 0 -9 -3 -15 -6z"></path>
<path d="M3336 1993 c-11 -11 -6 -23 9 -23 8 0 15 4 15 9 0 13 -16 22 -24 14z"></path>
<path d="M3405 1980 c-3 -5 1 -10 10 -10 9 0 13 5 10 10 -3 6 -8 10 -10 10 -2
0 -7 -4 -10 -10z"></path>
<path d="M3550 1980 c0 -5 5 -10 10 -10 6 0 10 5 10 10 0 6 -4 10 -10 10 -5 0
-10 -4 -10 -10z"></path>
<path d="M3488 1973 c7 -3 16 -2 19 1 4 3 -2 6 -13 5 -11 0 -14 -3 -6 -6z"></path>
<path d="M4270 779 c0 -5 5 -7 10 -4 6 3 10 8 10 11 0 2 -4 4 -10 4 -5 0 -10
-5 -10 -11z"></path>
<path d="M3060 740 c0 -5 5 -10 11 -10 5 0 7 5 4 10 -3 6 -8 10 -11 10 -2 0
-4 -4 -4 -10z"></path>
</g>
</svg>